<svg xmlns="http://www.w3.org/2000/svg" xmlns:xlink="http://www.w3.org/1999/xlink" version="1.1" width="100%" height="150px" viewBox="100 150 415 250">
    <defs>
        <clipPath id="clip_0">
            <path transform="matrix(1,0,0,-1,0,792)" d="M0 792H612V0H0Z"/>
        </clipPath>
    </defs>
    <g id="layer_1" data-name="Layer 1" transform="translate(0, -50)">
        <path transform="matrix(1,0,0,-1,165.347,387.2112)" d="M0 0-17.674-7.435-56.846 42.787-16.126 62.066Z" fill="#4ba847"/>
        <path transform="matrix(1,0,0,-1,203.1456,387.2156)" d="M0 0 17.674-7.435 56.846 42.787 16.126 62.066Z" fill="#4ba847"/>
        <path transform="matrix(1,0,0,-1,196.4489,385.597)" d="M0 0H-24.403L-39.971 68.913H15.555Z" fill="#4ba847"/>
        <path transform="matrix(1,0,0,-1,291.0081,316.6838)" d="M0 0H-18.191V-77.961H21.272L32.844-62.822H0Z" fill="#272b67"/>
        <path transform="matrix(1,0,0,-1,310.1843,316.6838)" d="M0 0V-14.462H21.951V-77.961H40.256V-14.462H56.405L67.455 0Z" fill="#272b67"/>
        <g clip-path="url(#clip_0)">
            <path transform="matrix(1,0,0,-1,421.6194,356.2854)" d="M0 0C-3.503 3.468-8.7 5.48-10.847 6.263-13.333 7.272-19.095 9.284-22.485 10.628-25.988 11.969-30.393 13.761-30.393 18.459-30.393 23.156-26.1 25.395-20.225 25.395-14.802 25.395-8.417 22.536-3.913 18.578L4.97 30.204C-.339 35.464-10.734 39.714-19.773 39.714-28.811 39.714-35.93 37.253-40.337 33.561-44.856 29.869-48.471 24.051-48.471 16.667-48.471 9.396-45.76 4.921-42.37 1.789-38.981-1.456-35.026-2.909-33.106-3.804-30.506-4.924-24.631-6.936-21.242-8.169-17.852-9.398-12.09-11.411-12.09-16.67-12.09-21.815-16.61-24.612-22.485-24.612-28.266-24.612-36.576-20.962-42.227-15.474L-51.861-28.08C-45.534-33.899-35.478-39.715-24.18-39.715-15.818-39.715-8.587-37.702-3.051-33.34 2.598-28.975 6.101-22.262 6.101-14.879 6.101-7.942 3.277-3.245 0 0" fill="#272b67"/>
            <path transform="matrix(1,0,0,-1,444.6407,394.6451)" d="M0 0H-18.514L9.48 77.947H31.672L59.66 0 41.145-.004 20.565 59.992 10.743 30.969H29.219L18.167 16.509 5.692 16.51Z" fill="#272b67"/>
        </g>
    </g>
</svg>
