<?xml version="1.0" encoding="UTF-8"?>
<svg width="1200pt" height="1200pt" version="1.1" viewBox="-41.63 -41.625 1283.23 1283.25" xmlns="http://www.w3.org/2000/svg">
 <path d="m1153.1 75v1050c0 15.516-12.609 28.125-28.125 28.125h-262.5c-15.516 0-28.125-12.609-28.125-28.125v-1050c0-15.516 12.609-28.125 28.125-28.125h262.5c15.516 0 28.125 12.609 28.125 28.125zm-393.74 412.5v637.5c0 15.516-12.609 28.125-28.125 28.125h-262.5c-15.516 0-28.125-12.609-28.125-28.125v-637.5c0-15.516 12.609-28.125 28.125-28.125h262.5c15.516 0 28.125 12.609 28.125 28.125zm-393.74 300v337.5c0 15.516-12.609 28.125-28.125 28.125h-262.5c-15.516 0-28.125-12.609-28.125-28.125v-337.5c0-15.516 12.609-28.125 28.125-28.125h262.5c15.516 0 28.125 12.609 28.125 28.125z" fill="#187d93" fill-rule="evenodd"/>
</svg>
