<?xml version="1.0" encoding="UTF-8"?>
<svg width="1200pt" height="1200pt" version="1.1" viewBox="-61.2 14.683 1322.4 1170.665" xmlns="http://www.w3.org/2000/svg">
 <path d="m573.94 916.69v-665.72c-65.953-45.281-135.66-80.438-207.56-104.86-67.359-22.875-136.6-36.422-206.48-40.172v675.98c75.75 3.7969 150.61 18.234 223.13 42.891 65.719 22.359 129.74 53.109 190.92 91.922zm-466.08-675.71c-13.641-1.4062-27.188-2.5312-40.641-3.4219-12.609-0.84375-25.031-1.5469-37.219-1.9688v699.56c97.875 3.4219 194.76 18.281 288.74 44.109 97.688 26.812 192.19 65.297 281.26 114.89 89.062-49.594 183.56-88.078 281.26-114.89 93.984-25.781 190.87-40.641 288.74-44.109v-699.56c-12.188 0.46875-24.609 1.125-37.266 1.9688-13.453 0.89062-27.047 2.0625-40.641 3.4219l0.09375 345.61c0 2.3438-0.32812 4.5938-0.89062 6.75-11.25 56.812-35.344 109.5-69.562 154.45-34.219 44.859-78.562 82.078-130.31 108-2.5781 1.5469-5.4375 2.6719-8.4844 3.2344-46.453 12.469-92.156 29.344-136.74 50.484-44.812 21.281-88.453 46.828-139.97 81.094l-10.594 0.375-11.109-4.7812c-69.234-48.938-142.45-86.484-218.16-112.27-75.141-25.5-152.63-39.422-230.72-41.062l-1.7812 0.046875c-14.391 0-26.016-11.672-26.016-26.062l0.09375-565.97zm744.24 572.72v-200.68c0-14.391 11.672-26.062 26.016-26.062l1.8281 0.046875c29.578-0.60938 59.344-3.0469 89.109-7.2188 23.812-3.375 47.531-7.875 71.062-13.453v-460.45c-69.844 3.75-139.13 17.297-206.48 40.172-71.953 24.469-141.66 59.578-207.61 104.86v665.72c31.969-20.25 64.688-38.344 97.969-54.141 41.766-19.828 84.562-36.094 128.06-48.844z" fill="#35465a"/>
</svg>
