<?xml version="1.0" encoding="UTF-8"?>
<svg width="1200pt" height="1200pt" version="1.1" viewBox="95.47 -38.034 1009.06 1279.39" xmlns="http://www.w3.org/2000/svg">
 <path d="m815.63 200.95h130.26c18.656 0 36.562 7.4062 49.781 20.625s20.625 31.125 20.625 49.781v811.36c0 18.656-7.4062 36.562-20.625 49.781s-31.078 20.625-49.781 20.625h-691.78c-18.656 0-36.562-7.4062-49.781-20.625s-20.625-31.078-20.625-49.781v-811.36c0-18.656 7.4062-36.609 20.625-49.781 13.219-13.219 31.078-20.625 49.781-20.625h118.41v-9.375c0-16.125 6.8438-31.734 19.5-43.125 11.531-10.453 27.141-16.5 43.5-16.5h47.062c11.906-46.359 56.812-81.75 111.52-81.75 54.656 0 99.609 35.391 111.47 81.75h47.109c16.312 0 31.922 6.0469 43.5 16.5 12.609 11.391 19.453 27 19.453 43.125zm-56.25 67.547v-76.922c0-0.5625-0.46875-0.98438-0.9375-1.4062-1.5469-1.4062-3.6562-1.9688-5.7656-1.9688h-72.234c-7.6875 0-15.094-3.1406-20.344-8.7188-5.3438-5.5781-8.1094-13.078-7.7344-20.812l0.09375-2.2031c0-28.406-26.906-49.969-58.359-49.969s-58.359 21.562-58.359 49.969l0.046875 2.2031c0.42188 7.7344-2.3906 15.234-7.6875 20.812-5.3438 5.5781-12.656 8.7188-20.391 8.7188h-72.188c-2.1562 0-4.2656 0.60938-5.8125 1.9688-0.46875 0.42188-0.9375 0.84375-0.9375 1.4062v76.922c0 0.60938 0.46875 1.0312 0.9375 1.4062 1.5469 1.3594 3.6562 1.9688 5.8125 1.9688h317.16c2.1562 0 4.2188-0.60938 5.7656-1.9688 0.46875-0.42188 0.9375-0.84375 0.9375-1.4062zm-169.97 252.1c-15.516 0-28.125-12.609-28.125-28.125s12.609-28.125 28.125-28.125h300c15.516 0 28.125 12.609 28.125 28.125s-12.609 28.125-28.125 28.125zm-298.74 173.48c-10.969-10.969-10.969-28.781 0-39.797 10.969-10.969 28.781-10.969 39.797 0l33.516 33.562 81.234-81.234c10.969-10.969 28.781-10.969 39.797 0 10.969 10.969 10.969 28.781 0 39.797l-101.11 101.11c-10.969 10.969-28.781 10.969-39.797 0zm298.74 195.74c-15.516 0-28.125-12.656-28.125-28.125 0-15.516 12.609-28.125 28.125-28.125h300c15.516 0 28.125 12.609 28.125 28.125 0 15.469-12.609 28.125-28.125 28.125zm-298.74-380.34c-10.969-10.969-10.969-28.781 0-39.797 10.969-10.969 28.781-10.969 39.797 0l33.516 33.562 81.234-81.188c10.969-10.969 28.781-10.969 39.797 0 10.969 10.969 10.969 28.781 0 39.75l-101.11 101.11c-10.969 10.969-28.781 10.969-39.797 0zm0 369.24c-10.969-10.969-10.969-28.781 0-39.797 10.969-10.969 28.781-10.969 39.797 0l33.516 33.562 81.234-81.234c10.969-10.969 28.781-10.969 39.797 0 10.969 10.969 10.969 28.781 0 39.797l-101.11 101.11c-10.969 10.969-28.781 10.969-39.797 0zm298.74-173.48c-15.516 0-28.125-12.609-28.125-28.125s12.609-28.125 28.125-28.125h300c15.516 0 28.125 12.609 28.125 28.125s-12.609 28.125-28.125 28.125z" fill="#bedbe4" fill-rule="evenodd"/>
</svg>
