<?xml version="1.0" encoding="UTF-8"?>
<svg width="1200pt" height="1200pt" version="1.1" viewBox="13.1 -96.01 1173.79 1392" xmlns="http://www.w3.org/2000/svg">
 <path d="m763.63 463.63c-75.383 0-136.44-61.055-136.44-136.37v-327.27h-409.01c-60.238 0-109.08 48.84-109.08 109.11v981.79c0 60.262 48.84 109.1 109.08 109.1h763.63c60.238 0 109.08-48.84 109.08-109.11v-627.26zm136.37 518.18h-600c-15.07 0-27.289-12.215-27.289-27.289 0-15.07 12.215-27.266 27.289-27.266h600c15.07 0 27.289 12.191 27.289 27.266 0 15.074-12.219 27.289-27.289 27.289zm0-163.63h-600c-15.07 0-27.289-12.191-27.289-27.289 0-15.07 12.215-27.266 27.289-27.266h600c15.07 0 27.289 12.191 27.289 27.266 0 15.098-12.219 27.289-27.289 27.289zm0-163.63h-600c-15.07 0-27.289-12.191-27.289-27.266 0-15.094 12.219-27.285 27.289-27.285h600c15.07 0 27.289 12.191 27.289 27.289 0 15.07-12.219 27.262-27.289 27.262z" fill="#187d9d"/>
 <path d="m763.63 409.15 277.32-0.16797-359.26-359.23v277.51c0.12109 45.07 36.84 81.719 81.938 81.887z" fill="#187d9d"/>
</svg>
