<?xml version="1.0" encoding="UTF-8"?>
<svg width="1200pt" height="1200pt" version="1.1" viewBox="-23.522 26.504 1247.09 1147.012" xmlns="http://www.w3.org/2000/svg">
 <path d="m62.484 736.18v-486.19c0-75.844 61.688-137.48 137.48-137.48h258.56c36.75 0 71.25 14.297 97.219 40.266l41.391 41.391c11.812 11.812 27.516 18.328 44.203 18.328h258.56c71.531 0 129.79 55.125 136.22 125.02h-747.1c-74.719 0-139.55 50.625-157.64 123.1zm1072.4-214.97-115.55 462.14c-15.328 61.312-70.219 104.16-133.4 104.16h-657.79c-42.609 0-82.125-19.266-108.38-52.875-26.25-33.609-35.391-76.594-25.031-117.98l109.45-437.86c9.75-39.047 44.672-66.328 84.891-66.328h760.92c27.141 0 52.312 12.234 68.953 33.656 16.688 21.328 22.547 48.75 15.984 75.047zm-647.34 378.79c0-20.719-16.781-37.5-37.5-37.5h-200.02c-20.719 0-37.5 16.781-37.5 37.5s16.781 37.5 37.5 37.5h200.02c20.719 0 37.5-16.781 37.5-37.5z" fill="#35465a"/>
</svg>
