<?xml version="1.0" encoding="UTF-8"?>
<svg width="1200pt" height="1200pt" version="1.1" viewBox="43.194 218.423 1113.595 763.243" xmlns="http://www.w3.org/2000/svg">
 <path d="m573.84 802.78c1.6875-6.375 1.3125-12.609-0.9375-18.375-4.2188-10.219-13.312-16.688-27.938-19.547-10.312-2.1562-21.844 1.0781-30.469 9l-41.156 37.312c-5.2969 4.7812-11.531 8.1562-18.375 9.9375 4.7812 15 14.859 28.781 27.844 37.312 8.5312 5.625 22.078 11.391 37.781 6.4688h0.14062c9-2.7656 17.766-8.8594 25.922-18.234l21.234-30.469c2.7188-4.0312 4.7344-8.5781 5.9531-13.406z" fill="#90A668"/>
 <path d="m752.63 869.63c15-2.1562 22.781-8.7656 27-16.688-7.2188-1.6875-14.391-3.6094-21.703-6-0.70312 7.125-2.5312 14.672-5.2969 22.688z" fill="#90A668"/>
 <path d="m958.08 643.78-44.391-45.234-239.16-119.16c-16.312 12-32.062 19.781-47.859 23.625-42 79.078-87.469 107.86-142.92 90.938-7.0781-2.2969-12.844-7.3125-15.844-14.156-3-6.7031-3-14.531 0-21.234l1.2188-2.7656c6.9375-16.219 9.4688-35.625 7.7812-61.312-2.2969-32.391 21.844-72.234 75.844-125.29 2.625-2.625 5.5312-5.0625 8.3906-7.4531-36.469-2.7656-88.922 5.5312-117.23 15.703-24.469 8.8594-59.766 10.312-104.86 4.6875 5.7656 118.69-11.156 234.37-50.531 344.06 12.141 6 24.375 12.703 37.547 20.859l11.062 4.6875 0.375 0.14062 100.69 43.781c0.84375 0.375 2.0625 0.60938 3.375 0.9375 5.2969 0.70312 10.688-0.84375 14.531-4.3125l41.297-37.453c14.766-13.312 34.453-18.844 52.781-15 28.688 5.8594 41.062 22.312 46.312 35.062 0.70312 1.9219 1.2188 3.8438 1.7812 5.8594l0.9375-0.70312c18-13.547 39.703-19.922 61.078-17.766 3 0.23438 5.8594 0.70312 8.625 1.2188 18.375 3.9375 32.156 17.391 37.219 34.547 11.625-1.9219 23.859 0.70312 33.844 7.6875 4.6875 3.2344 8.5312 7.3125 11.391 11.766 14.391 5.625 28.078 9.7031 41.766 12.234 1.0781 0.14062 2.625 0.375 4.0781 0.46875 19.078 1.6875 35.625-11.391 39.141-30 0.60938-3.2344 1.0781-6.7031 1.5469-10.312-4.4531-1.0781-8.8594-2.625-13.078-4.6875l-121.45-58.922c-6.375-3.1406-9-10.688-5.8594-17.062s10.688-9 17.062-5.8594l121.31 58.922c5.0625 2.3906 10.453 3.7031 16.219 3.9375 16.547 0.84375 31.547-8.0625 38.625-22.781 2.625-5.3906 3.8438-11.062 4.0781-16.781-15.844-4.5469-30.469-9.6094-43.312-15.141-16.219-7.3125-29.859-17.625-39.938-25.922-22.781-18.609-50.766-35.625-85.688-52.078-6.375-3-9.1406-10.547-6.1406-16.922s10.547-9.1406 16.922-6.1406c36.844 17.391 66.469 35.531 90.938 55.312 8.8594 7.3125 20.766 16.453 34.078 22.312 13.781 6 30.141 11.531 48.375 16.312h0.28125l4.5469 1.2188c0.46875 0.14062 0.9375 0.23438 1.3125 0.46875 18.703 7.4531 40.312-0.9375 49.078-19.078 2.5312-5.1562 3.8438-10.922 3.8438-16.688 0-3.6094-0.60938-7.5469-1.6875-11.531-2.0156-5.3906-5.1094-10.641-9.3281-15z" fill="#90A668"/>
 <path d="m821.29 345.94c70.453 61.219 108.23 140.76 112.45 236.53l42.609 43.453c3.7031 3.8438 6.9375 8.1562 9.7031 12.844l93.938-42.984-141.84-300.56z" fill="#90A668"/>
 <path d="m725.29 826.69c-5.5312-3.8438-12.234-4.6875-18.375-2.3906-1.7812 7.5469-5.2969 14.766-10.688 21-20.156 23.625-40.453 41.531-60.375 53.531 13.688 8.0625 34.219 10.078 69.844-6.8438 8.2969-3.8438 15.141-10.922 18.703-19.219 4.9219-11.391 7.7812-21.469 8.625-30.141 0.75-9-5.1094-14.156-7.7344-15.938z" fill="#90A668"/>
 <path d="m365.63 816c9.9375 3.2344 22.219-0.70312 32.531-9.8438l-52.547-22.781c2.3906 17.391 9.3281 29.156 20.016 32.625z" fill="#90A668"/>
 <path d="m313.31 378.37c-10.078-1.6875-20.531-3.7031-31.547-6-44.391-9.4688-84-21.703-104.3-28.312l-57.469 334.31c22.547 3.6094 71.062 12.375 118.45 27.609 9.2344 3 18 6.2344 26.625 9.8438 38.297-107.67 54.469-221.06 48.234-337.45z" fill="#90A668"/>
 <path d="m676.92 828.71c3.6094-4.2188 5.5312-8.8594 5.7656-14.062 0.70312-10.922-5.5312-23.297-18.844-26.156-1.7812-0.375-3.8438-0.60938-6.2344-0.84375-15.141-1.5469-30.469 3-43.312 12.703l-17.531 13.312c-1.9219 6-4.4531 11.625-8.0625 16.922l-21.609 31.078c-0.23438 0.375-0.46875 0.70312-0.84375 1.0781-6.1406 7.0781-12.469 12.703-19.312 17.297 18.141 12.703 38.297 14.297 61.312 4.4531 21.75-9.3281 45.375-28.547 68.672-55.781z" fill="#90A668"/>
 <path d="m491.06 569.39c29.297 9.1406 68.859 7.7812 115.78-83.391 1.7812-3.4688 5.1562-6 9-6.7031 15.844-2.8594 31.922-10.922 49.312-24.844 2.2969-1.7812 5.1562-2.7656 7.9219-2.7656 1.9219 0 3.8438 0.46875 5.625 1.3125l228.47 113.86c-7.6875-87.234-45.469-156.71-114.84-211.78l-121.22-5.7656c-37.781-1.6875-74.531 12.141-100.78 37.922-47.062 46.219-69.938 81.703-68.297 105.47 1.9219 29.859-1.2188 53.062-9.8438 73.219z" fill="#90A668"/>
</svg>
