<?xml version="1.0" encoding="UTF-8"?>
<svg width="1200pt" height="1200pt" version="1.1" viewBox="-95.981 -95.982 1391.976 1391.986" xmlns="http://www.w3.org/2000/svg">
 <path d="m1106.3 93.73c-124.98-124.95-327.59-124.95-452.54 0l-178.55 178.48c14.137-1.5391 28.418-2.1992 42.773-2.1992 45.188 0 89.129 7.1797 130.73 21.02l101.18-101.14c34.75-34.789 80.965-53.902 130.11-53.902 49.148 0 95.363 19.117 130.11 53.902 34.754 34.715 53.863 80.855 53.863 130.07 0 49.145-19.109 95.359-53.863 130.07l-197.96 197.97c-34.754 34.789-80.969 53.898-130.11 53.898-49.219 0-95.359-19.109-130.14-53.902-16.918-16.848-30.102-36.477-39.184-57.863-22.559 1.2461-43.648 10.621-59.762 26.73l-52.73 52.801c14.43 26.73 32.957 51.926 55.516 74.562 124.95 124.95 327.59 124.95 452.57 0l198-198.04c124.91-124.94 124.91-327.52 0-452.46z" fill="#90A668"/>
 <path d="m684.15 929.91c-45.262 0-89.645-7.3242-132.19-21.754l-101.88 101.88c-34.715 34.789-80.926 53.902-130.07 53.902s-95.281-19.113-130.07-53.902c-34.789-34.719-53.902-80.926-53.902-130.07 0-49.145 19.117-95.363 53.902-130.14l197.96-197.96c34.789-34.715 80.93-53.832 130.07-53.832 49.215 0 95.359 19.117 130.11 53.832 16.922 16.918 30.133 36.547 39.258 57.93 22.633-1.1719 43.762-10.621 59.875-26.73l52.66-52.73c-14.43-26.809-32.996-52-55.59-74.633-124.95-124.95-327.59-124.95-452.54 0l-197.96 198.04c-125.02 124.95-125.02 327.52 0 452.55 124.95 124.95 327.52 124.95 452.47 0l178.26-178.26c-13.293 1.2383-26.73 1.9062-40.281 1.9062z" fill="#90A668"/>
</svg>
