<?xml version="1.0" encoding="UTF-8"?>
<svg width="1200pt" height="1200pt" version="1.1" viewBox="143.294 23.294 913.411 1153.411" xmlns="http://www.w3.org/2000/svg">
 <path d="m840 548.58v-205.74c0-132.32-107.67-240-240-240s-240 107.67-240 240v205.74c-75.609 0-137.16 61.547-137.16 137.16v274.26c0 75.609 61.547 137.16 137.16 137.16h480c75.609 0 137.16-61.547 137.16-137.16v-274.26c0-75.609-61.547-137.16-137.16-137.16zm-205.74 342.84c0 18.844-15.422 34.266-34.266 34.266s-34.266-15.422-34.266-34.266v-137.16c0-18.844 15.422-34.266 34.266-34.266s34.266 15.422 34.266 34.266zm137.16-342.84h-342.84v-205.74c0-94.453 76.969-171.42 171.42-171.42 94.449 0 171.42 76.969 171.42 171.42z" fill="#dee4d1"/>
</svg>
