<?xml version="1.0" encoding="UTF-8"?>
<svg width="1200pt" height="1200pt" version="1.1" viewBox="-60.783 -60.872 1321.72 1321.72" xmlns="http://www.w3.org/2000/svg">
 <path d="m518.44 30.281h163.18c8.1562 0 14.906 6.2344 15.656 14.203l20.766 139.36c32.438 9.1875 63.328 21.984 92.812 38.438l113.91-84.328c6.3281-4.6875 15.047-3.8906 20.438 1.5l115.41 115.36c5.8594 5.8594 6.0938 15.328 0.70312 21.469l-83.578 112.88c16.359 29.297 29.344 60.469 38.484 92.766l140.11 20.906c7.8281 1.125 13.453 7.875 13.453 15.516v163.18c0 8.1562-6.2344 14.859-14.203 15.656l-139.36 20.766c-9.1875 32.438-21.984 63.328-38.438 92.812l84.328 113.91c4.6875 6.3281 3.8906 15.047-1.5 20.438l-115.36 115.41c-5.8594 5.8594-15.328 6.0938-21.469 0.70312l-112.88-83.578c-29.297 16.359-60.469 29.344-92.766 38.484l-20.906 140.11c-1.125 7.8281-7.875 13.453-15.516 13.453h-163.18c-8.1562 0-14.859-6.2344-15.656-14.203l-20.766-139.36c-32.438-9.1875-63.328-21.984-92.812-38.438l-113.91 84.328c-6.3281 4.6875-15.047 3.8906-20.438-1.5l-115.41-115.36c-5.8594-5.8594-6.0938-15.328-0.70313-21.469l83.578-112.88c-16.359-29.297-29.344-60.469-38.484-92.766l-140.11-20.906c-7.8281-1.125-13.453-7.875-13.453-15.516v-163.18c0-8.1562 6.2344-14.859 14.203-15.656l139.36-20.766c9.1875-32.438 22.031-63.328 38.484-92.812l-84.328-113.91c-4.6875-6.3281-3.8906-15.047 1.5-20.438l115.36-115.41c5.8594-5.8594 15.328-6.0938 21.469-0.70312l112.88 83.578c29.344-16.406 60.469-29.344 92.766-38.484l20.906-140.11c1.125-7.8281 7.875-13.453 15.516-13.453zm81.562 347.72c-122.68 0-222.05 99.375-222.05 222.05s99.375 222.05 222.05 222.05 222.05-99.375 222.05-222.05-99.375-222.05-222.05-222.05z" fill="#bedbe4"/>
</svg>
