<?xml version="1.0" encoding="UTF-8"?>
<svg width="1200pt" height="1200pt" version="1.1" viewBox="-69.05 -82.175 1338.1 1363.725" xmlns="http://www.w3.org/2000/svg">
 <path d="m972.5 180 67.5 67.5z" fill="#90A668"/>
 <path d="m1155 32.5c-27.5-27.5-72.5-27.5-100 0l-80 80 100 100 80-80c12.5-12.5 20-30 20-50 0-17.5-7.5-37.5-20-50z" fill="#90A668"/>
 <path d="m1035 172.5-42.5-42.5z" fill="#90A668"/>
 <path d="m912.5 122.5c-12.5 5-27.5 15-37.5 25l-690 690-105 270 270-105 692.5-692.5c10-10 20-25 25-37.5z" fill="#90A668"/>
 <path d="m765 715-35-35 275-272.5-47.5-47.5 35-35 82.5 82.5z" fill="#90A668"/>
 <path d="m25 1137.5h1125v50h-1125z" fill="#90A668"/>
</svg>
