<?xml version="1.0" encoding="UTF-8"?>
<svg width="1200pt" height="1200pt" version="1.1" viewBox="43.207 43.154 1113.59 1113.64" xmlns="http://www.w3.org/2000/svg">
 <path d="m131.06 204.79c0.84375-3.4688 1.8281-6.7969 2.9531-9.9375 6.8906-18.797 21.797-31.688 41.438-35.766l182.63-37.922c26.906-5.5781 53.344 8.5781 63.656 34.031l76.875 190.03c9.0469 22.312 3.4688 46.688-14.391 62.859l-69.516 62.953c-19.359 17.531-22.781 44.344-11.953 68.109 46.781 102.66 155.39 211.4 258.1 258.1 23.766 10.828 50.578 7.4062 68.062-11.953l62.953-69.516c16.172-17.812 40.547-23.391 62.859-14.391l190.03 76.875c25.453 10.312 39.609 36.75 34.031 63.656l-37.922 182.63c-4.0781 19.641-16.922 34.547-35.766 41.438-3.1406 1.125-6.4219 2.1094-9.9375 2.9531-406.03 96.375-960.47-458.06-864.1-864.14z" fill="#187d9d" fill-rule="evenodd"/>
</svg>
