<?xml version="1.0" encoding="UTF-8"?>
<svg width="1200pt" height="1200pt" version="1.1" viewBox="0.935 14.625 1197.524 1170.738" xmlns="http://www.w3.org/2000/svg">
 <path d="m776.29 207.61c-7.6406 1.125-13.406 3.0938-17.484 5.8594l-0.375 0.23438c-4.1719 2.9062-6.9375 5.8594-8.3906 9v0.046875c-1.1719 2.4844-1.8281 4.5-2.0156 6.2344 0 0.32812-0.046875 0.65625-0.046875 0.98438v17.438c0 1.7812 0.60938 3.4219 1.8281 5.0156 0.60938 0.84375 1.4062 1.5938 2.3906 2.3906v0.046875c1.8281 1.4531 3.8438 2.7188 6.0938 3.8438v0.046875c5.1094 2.6719 11.109 5.1562 18.047 7.4062v-58.547zm24.609 91.828v36.703l7.0312 3.375 1.125 0.5625 0.60938 0.32812 13.875 7.4531c1.6406-1.6406 2.7656-3.2344 3.5625-4.9219 1.2656-2.625 2.0156-4.8281 2.2031-6.5625 0.046875-0.375 0.046875-0.75 0.046875-1.0781v-17.156c0-1.8281-0.60938-3.5156-1.9219-5.1094l-0.09375-0.14062c-0.60938-0.70312-1.3594-1.4062-2.25-2.1094-1.8281-1.5-3.75-2.7656-5.9062-3.8906l-0.46875-0.23438c-5.0156-2.625-10.922-5.0156-17.719-7.2188zm-12.234-202.22v0.09375c-102.84-0.046875-186.19 83.297-186.19 186.1 0 13.031 1.3594 25.734 3.8906 38.016l15.938-0.46875 9.0469 0.23438h0.09375l11.109 0.28125 20.156 1.5938 20.109 2.625 19.266 3.5625 19.688 4.7344 0.65625 0.1875 18.75 5.5781 0.65625 0.1875 18.469 6.5625 0.5625 0.23438 15.609 6.5156-0.046874-61.219c-10.828-3.2812-20.766-7.2188-30-11.859h-0.046876c-6.4688-3.6094-11.344-7.3125-14.625-11.203l-0.046874-0.046875c-3.2344-3.8438-5.3438-7.5-6.4688-11.062l-0.046876-0.09375c-1.1719-3.8906-1.7344-7.2656-1.7344-10.359v-17.578c0-0.65625 0.14062-2.2031 0.375-4.6875v-0.046875c0.32812-2.4375 1.125-5.4375 2.3906-9.0469l0.046876-0.046875c1.3594-3.5625 3.4688-7.2656 6.3281-11.156l0.046876-0.14062c3.1875-4.5938 8.25-9 15.516-13.359l0.14063-0.09375c6.8906-4.125 16.266-6.8906 28.078-8.2969l0.09375-5.3906c0-6.75 5.4375-12.234 12.188-12.234s12.234 5.4844 12.234 12.234l0.046874 5.3906c11.859 1.4062 21.188 4.2188 27.984 8.2969 7.3594 4.3594 12.75 8.7656 15.938 13.406h0.046874c2.8125 3.8906 4.7344 7.7344 6 11.25 1.3125 3.6562 2.1094 6.6562 2.4375 9.0469 0.375 2.625 0.5625 4.2656 0.5625 4.875v6.9844c0 3.375-1.2188 6.2812-3.6094 8.625-2.4375 2.4844-5.3906 3.7031-8.7656 3.7031-3.3281 0-6.1875-1.125-8.5312-3.4688l-0.09375-0.09375c-2.3906-2.4844-3.5625-5.3438-3.5625-8.7656v-6.5625c0-0.28125 0-0.60938-0.046874-0.89062-0.14063-1.7812-0.79688-3.9375-2.0156-6.5156l-0.046874-0.09375c-1.5469-3.2344-4.4062-6.3281-8.625-9.2344l-0.09375-0.046875c-4.0312-2.7188-9.8438-4.6875-17.484-5.8594h-0.09375l0.046876 66c10.875 3.2812 20.953 7.2188 30.141 11.859 6.3281 3.5625 11.062 7.2656 14.297 11.109l0.09375 0.046875c3.2812 3.8438 5.4844 7.4531 6.6094 11.016v0.09375c1.1719 3.8438 1.7812 7.3125 1.7812 10.406v17.578c0 0.60938-0.1875 2.1562-0.51562 4.6875l-0.046876 0.046875c-0.32812 2.4844-1.125 5.5312-2.4375 9.1875v0.046875c-1.2656 3.5156-3.3281 7.1719-6.1406 11.016l-0.09375 0.14062c-3.1875 4.5938-8.3906 9.0938-15.656 13.453-1.9219 1.1719-4.0312 2.2031-6.375 3.1406l8.6719 5.3438 0.51563 0.375 15.938 10.969 0.51562 0.375 15.328 11.766 0.46875 0.42188 14.719 12.562 0.46875 0.42188 14.016 13.359 0.42188 0.42188 2.1562 2.2031c47.812-33.703 78.984-89.297 78.984-152.26 0-102.8-83.344-186.19-186.19-186.19v0.046874-0.046874 0.046874zm-445.64 403.82c-0.14063 0 0 0 0 0 24.422-0.046875 44.203 19.781 44.203 44.156 0 24.422-19.828 44.203-44.203 44.203-24.422 0-44.203-19.781-44.203-44.203 0-24.328 19.688-44.109 44.016-44.156zm223.31-243.24v0.046874l-13.5 0.89063c-54.797 4.4062-107.02 17.25-154.87 37.172-10.312-5.8125-21.938-8.8594-33.75-8.8594-0.51563 0-105.09 0.42187-105.09 0.42187-21.75 0.09375-42.188 10.5-55.078 28.031v0.046876c-12.891 17.531-16.688 40.172-10.266 60.984l18.656 60.469c-26.766 35.625-47.297 75.656-59.719 118.88l-8.0156 0.89063c-36.797 4.0781-63.75 36.516-60.984 73.406l8.2031 110.11c2.3906 32.062 26.719 58.219 58.594 62.859l24.844 3.6562c28.5 58.078 72.188 108.05 125.53 147l-0.09375 0.046874 57.188 111.52c12.234 23.812 36.375 37.359 61.172 37.359h65.531c29.953-0.09375 57.422-19.875 65.906-50.203l2.0625-7.125c14.344 1.1719 28.922 1.7812 43.594 1.7812 38.297 0 75.703-4.125 111.52-11.859h0.09375l4.8281 17.25c8.3906 29.953 35.25 49.641 64.781 50.156l66.656 0.046876c29.203-0.046876 56.344-18.75 65.578-48.188l51.375-164.11c49.219-56.25 82.125-125.16 90.234-201.37h-0.046876c19.359-2.4844 43.031-7.2188 54.984-27.094 12.797-21.281 9.7969-57.938 7.875-87.609-0.375-5.7188-4.7344-10.406-10.406-11.25-0.60938-0.09375-1.2188-0.14063-1.8281-0.14063-5.0156 0-9.6094 3.0938-11.438 7.9219-8.8594 23.531-16.031 41.578-23.391 48.047-2.1094 1.8281-4.125 2.4375-6.8438 2.4375-2.4375 0-5.0625-0.46875-8.2969-1.3125h-0.046874c-6.1406-68.531-31.781-130.45-71.578-183.19l-0.14062-0.1875c-4.1719-5.5781-8.5312-11.016-12.984-16.312v-0.046875c-2.25-2.5781-5.6719-4.125-9.375-4.125-4.125 0-7.4062 2.3438-9.9844 5.25l-4.9688 5.4375c-9.8438 10.5-20.719 20.062-32.484 28.406 0.1875 3.4219-1.125 6.8906-3.7969 9.4219-2.3438 2.25-5.3906 3.375-8.3906 3.375-3.2344 0-6.4688-1.3125-8.9062-3.8438l-13.031-13.781-13.594-12.891-14.156-12.141-14.859-11.438-15.375-10.594-15.891-9.7969-16.453-8.9531-16.875-8.0625-17.203-7.1719-17.906-6.375-18.188-5.4375-18.422-4.4062-18.609-3.4688-18.797-2.4375-18.938-1.4531-18.938-0.46875-18.938 0.5625-19.219 1.5469c-0.375 0.046875-0.70313 0.046875-1.0312 0.046875-6.2812 0-11.625-4.8281-12.141-11.203-0.5625-6.7031 4.3594-12.562 11.016-13.172l0.09375-0.046875c-2.4375-12.891-3.7031-26.156-3.7031-39.75 0-1.9688 0-3.8906 0.09375-5.8594v-0.046875c0.046876-1.8281 0.09375-3.6094 0.23438-5.3906 0.046874-1.4062 0.09375-2.0625 0.09375-2.0625 0-6.75-5.4375-12.234-12.188-12.234z" fill="#bedbe4"/>
</svg>
