<?xml version="1.0" encoding="UTF-8"?>
<svg width="1200pt" height="1200pt" version="1.1" viewBox="-61.594 57.552 1323.14 1083.702" xmlns="http://www.w3.org/2000/svg">
 <path d="m1165.2 526.8-162-260.4 61.199-14.398c16.801-3.6016 30-18 28.801-36-1.1992-22.801-21.602-37.199-43.199-32.398l-342 78c-14.398-15.602-33.602-26.398-55.199-30v-48c0-19.199-15.602-34.801-34.801-34.801h-36c-19.199 0-34.801 15.602-34.801 34.801v48c-42 6-74.398 40.801-78 84l-336 76.801c-19.199 4.8008-30 22.801-26.398 42 3.6016 15.602 18 27.602 33.602 27.602 2.3984 0 4.8008 0 7.1992-1.1992l32.398-7.1992-145.2 237.59c-6 10.801-7.1992 22.801-1.1992 33.602 38.398 76.801 116.4 126 202.8 126 86.398 0 164.4-48 201.6-126 4.8008-10.801 4.8008-24-1.1992-33.602l-159.61-259.2 216-49.199c14.398 15.602 33.602 26.398 55.199 30v532.8h-111.6c-36 0-64.801 28.801-64.801 64.801v28.801c0 6 4.8008 10.801 10.801 10.801h436.8c6 0 10.801-4.8008 10.801-10.801v-28.801c0-36-28.801-64.801-64.801-64.801h-111.6l0.003906-532.8c42-6 74.398-40.801 78-84l180-42-147.6 240c-6 10.801-7.1992 22.801-1.1992 33.602 38.398 76.801 116.4 126 202.8 126 86.398 0 164.4-48 202.8-126 2.3984-9.6016 2.3984-22.801-3.6016-33.602zm-812.4 160.8h-234l116.4-188.4zm494.4-164.4 116.4-188.4 116.4 188.4z" fill="#bedbe4"/>
</svg>
