<?xml version="1.0" encoding="UTF-8"?>
<svg width="1200pt" height="1200pt" version="1.1" viewBox="109.474 34.577 980.975 1130.907" xmlns="http://www.w3.org/2000/svg">
 <path d="m1001.5 273.47c-7.0312-7.0312-16.594-10.969-26.531-10.969-123.74 0-242.9-45.281-335.44-127.5l-14.625-12.938c-14.25-12.656-35.625-12.656-49.781 0l-14.625 12.938c-92.531 82.219-211.69 127.5-335.53 127.5-9.9375 0-19.5 3.9375-26.531 10.969s-10.969 16.594-10.969 26.531v322.4c0 150.19 81.75 288.47 213.37 360.84l181.03 99.562c5.625 3.0938 11.812 4.6875 18.094 4.6875s12.469-1.5938 18.094-4.6875l181.03-99.562c131.63-72.375 213.37-210.66 213.37-360.84v-322.4c0-9.9375-3.9375-19.5-10.969-26.531zm-167.81 202.03-243.74 262.5c-6.9375 7.5-16.594 11.812-26.812 12h-0.65625c-9.9375 0-19.5-3.9375-26.531-10.969l-131.26-131.26c-14.625-14.625-14.625-38.344 0-53.062 14.625-14.625 38.438-14.625 53.062 0l103.78 103.69 217.22-234c14.062-15.188 37.781-16.031 52.969-1.9688 15.188 14.156 16.031 37.875 1.9688 53.062z" fill="#35465a"/>
</svg>
