<?xml version="1.0" encoding="UTF-8"?>
<svg width="1200pt" height="1200pt" version="1.1" viewBox="143.791 78.156 912.443 1041.813" xmlns="http://www.w3.org/2000/svg">
 <path d="m853.13 600c0-7.5-5.625-15-13.125-16.875l-211.87-76.875-76.875-211.87c-1.875-7.5-9.375-13.125-16.875-13.125s-15 5.625-16.875 13.125l-76.875 211.87-211.87 76.875c-7.5 1.875-13.125 9.375-13.125 16.875s5.625 15 13.125 16.875l211.87 76.875 76.875 211.87c1.875 7.5 9.375 13.125 16.875 13.125s15-5.625 16.875-13.125l76.875-211.87 211.87-76.875c7.5-1.875 13.125-9.375 13.125-16.875z" fill="#187d9d"/>
 <path d="m660 335.63 101.25 35.625 35.625 101.25c1.875 7.5 9.375 13.125 16.875 13.125s15-5.625 16.875-13.125l35.625-101.25 101.25-35.625c7.5-1.875 13.125-9.375 13.125-16.875s-5.625-15-13.125-16.875l-101.25-35.625-35.625-101.25c0-9.375-7.5-15-15-15s-15 5.625-16.875 13.125l-35.625 101.25-101.25 35.625c-7.5 1.875-13.125 9.375-13.125 16.875-1.875 9.375 3.75 16.875 11.25 18.75z" fill="#187d9d"/>
 <path d="m971.26 864.37-101.25-35.625-35.625-101.25c-1.875-7.5-9.375-13.125-16.875-13.125s-15 5.625-16.875 13.125l-35.625 101.25-101.25 35.625c-7.5 1.875-13.125 9.375-13.125 16.875s5.625 15 13.125 16.875l101.25 35.625 35.625 101.25c1.875 7.5 9.375 13.125 16.875 13.125s15-5.625 16.875-13.125l35.625-101.25 101.25-35.625c7.5-1.875 13.125-9.375 13.125-16.875s-5.625-15-13.125-16.875z" fill="#187d9d"/>
</svg>
