<?xml version="1.0" encoding="UTF-8"?>
<svg width="1200pt" height="1200pt" version="1.1" viewBox="182.158 43.2 835.442 1113.602" xmlns="http://www.w3.org/2000/svg">
 <path d="m600 554.4c119.76 0 216.84-97.441 216.84-217.2 0-119.76-97.078-217.2-216.84-217.2s-217.2 97.441-217.2 217.2c0 119.76 97.438 217.2 217.2 217.2z" fill="#dee4d1"/>
 <path d="m940.8 806.64c0-91.078-35.641-176.64-100.32-241.2-19.441-19.441-40.559-35.281-63.238-49.078-45.602 45.238-108.12 73.441-177.36 73.441-69.238 0-132.12-28.199-177.72-73.441-101.04 61.801-163.2 171.36-163.2 290.28l-0.003906 273.36h681.84z" fill="#dee4d1"/>
</svg>
