<svg width="64" height="27" viewBox="0 0 64 27" fill="none" xmlns="http://www.w3.org/2000/svg">
<path d="M15.7022 0L12.428 5.56753L9.45104 3.98558L10.9823 13.9985L6.29844 9.26631L5.21305 11.5334L0.488653 10.8073L1.85778 16.1654L0 17.5721L7.96932 24.025L7.07308 27L15.5896 25.5L15.9431 23.4219L15.5603 23.3513L13.8579 23.654L14.0358 23.0577L12.4415 21.7671L12.8131 21.4871L12.5406 20.415L13.4841 20.5607L13.7025 20.1055L14.6371 21.0524L14.3331 19.0493L14.9276 19.3657L15.5828 18.2549L16.2381 19.3657L16.6727 19.1244L18.9786 5.57208L15.7022 0Z" fill="white"/>
<path d="M58.4514 23.0645C58.4514 22.6479 58.787 22.3384 59.181 22.3384C59.5729 22.3384 59.9084 22.6479 59.9084 23.0645C59.9084 23.4856 59.5751 23.7929 59.181 23.7929C58.7847 23.7929 58.4514 23.4856 58.4514 23.0645ZM59.181 23.6722C59.5076 23.6722 59.7643 23.415 59.7643 23.0645C59.7643 22.7208 59.5076 22.4613 59.181 22.4613C58.8523 22.4613 58.5956 22.7208 58.5956 23.0645C58.5956 23.415 58.8523 23.6722 59.181 23.6722ZM59.0279 23.4856H58.9041V22.6479H59.2193C59.4152 22.6479 59.5121 22.7208 59.5121 22.8869C59.5121 23.0372 59.4197 23.1009 59.2981 23.1168L59.5346 23.4856H59.3927L59.1743 23.1214H59.0302V23.4856H59.0279ZM59.1788 23.0144C59.2846 23.0144 59.3815 23.0053 59.3815 22.8778C59.3815 22.7731 59.2869 22.7549 59.1991 22.7549H59.0279V23.0144H59.1788Z" fill="white"/>
<path d="M22.5433 7.48631L22.6244 7.41803C23.7571 7.46355 24.8425 7.53184 25.9369 7.53184C29.6119 7.53184 32.5258 7.46355 34.0165 7.41803L34.1336 7.53184C33.8094 8.73366 33.5054 9.95597 33.2396 11.0872L33.1608 11.1555H32.4988L32.4402 11.0872C32.5213 10.6252 32.7735 9.17069 32.6001 8.98632C32.4087 8.77691 30.5194 8.61757 29.3304 8.61757C28.3936 8.61757 27.5605 8.68814 27.1011 8.7109C26.6327 10.7435 26.2859 12.7283 25.9391 14.7132C26.8038 14.7359 27.7338 14.7587 28.3283 14.7587C29.3101 14.7587 30.1005 14.6881 30.2807 14.4332C30.5532 14.0645 30.7919 13.2109 30.8549 12.8422L30.936 12.7739H31.5305L31.5868 12.8422C31.4314 13.7435 31.222 14.6654 31.0621 15.5872C30.954 16.2109 30.8392 17.135 30.6973 17.9408L30.6162 18.0114H30.024L29.9654 17.9408C30.0262 17.5948 30.024 16.6957 29.9362 16.2792C29.8754 15.9787 29.1413 15.8626 27.7474 15.8626C26.9727 15.8626 26.3737 15.8877 25.7319 15.9104C24.6691 22.0038 24.7028 22.2109 24.9123 22.4431C25.0857 22.6274 25.75 22.7413 26.6192 22.7413L26.6755 22.8118L26.5584 23.481L26.4796 23.5493C25.3446 23.5038 24.2615 23.4355 23.1648 23.4355C22.0704 23.4355 20.9625 23.506 19.8118 23.5493L19.7555 23.481L19.8726 22.8118L19.9537 22.7413C20.8229 22.7413 21.5255 22.6252 21.7642 22.4431C22.0547 22.2132 22.1605 22.006 23.0928 16.6502L23.5004 14.3194C24.4349 8.96583 24.4011 8.75642 24.1894 8.52653C24.0183 8.34216 23.354 8.22607 22.4848 8.22607L22.4285 8.15779L22.5433 7.48631Z" fill="white"/>
<path d="M46.5864 21.3824C46.3252 21.8194 46.091 22.2565 45.8523 22.698C44.2445 23.4128 42.4543 23.8521 40.3758 23.8521C35.8766 23.8521 32.0462 21.082 32.9965 15.6351C33.8972 10.4659 37.928 7.11761 43.6365 7.11761C45.5325 7.11761 47.8655 7.6252 48.7865 7.97346L48.8946 8.13507C48.4059 9.10472 48.1177 10.7823 48.0389 11.3581L47.9578 11.4287H47.2282L47.1696 11.3581C47.2665 10.8005 47.3138 10.302 47.2282 9.74887C47.2214 9.6988 47.1877 9.67831 47.1899 9.65783C46.7576 8.98863 45.179 8.22611 43.1456 8.22611C38.8761 8.22611 36.3855 11.6427 35.8293 14.827C35.0952 19.0266 36.8944 22.4681 41.8035 22.4681C43.1501 22.4681 44.9043 22.0994 46.3365 21.2208L46.5864 21.3824Z" fill="white"/>
<path d="M51.0496 22.8118L51.1306 22.7413C51.9976 22.7413 52.7047 22.6252 52.9389 22.4408C53.2316 22.2109 53.3374 22.0015 54.2697 16.648C54.5602 14.9841 54.9115 12.4461 55.515 8.72914C54.5827 8.70638 53.8959 8.70638 53.1663 8.70638C51.9773 8.70638 51.536 8.75418 51.34 8.96131C51.1486 9.14568 50.7861 9.34826 50.3177 11.1032L50.2119 11.1942H49.5048L49.4485 11.1237C49.8606 9.63051 50.0587 8.42869 50.2524 7.4818L50.3312 7.41351C52.4682 7.4818 55.0849 7.52732 57.1161 7.52732C59.1495 7.52732 61.7819 7.4818 63.9414 7.41351L63.9977 7.4818C63.7117 8.33536 63.5226 9.4211 63.2276 11.1055L63.1488 11.1738H62.4394L62.3651 11.0827C62.5093 9.32778 62.5183 9.14341 62.3922 8.95904C62.2683 8.7519 61.845 8.70411 60.6537 8.70411C59.9241 8.70411 59.2396 8.7041 58.2983 8.72687C57.6047 12.4439 57.0688 14.9818 56.7783 16.6457C55.8438 21.9992 55.8775 22.2087 56.087 22.4385C56.2604 22.6229 56.9247 22.739 57.7916 22.739L57.8502 22.8096L57.7331 23.4788L57.652 23.547C56.5193 23.5015 55.4339 23.4332 54.3395 23.4332C53.2451 23.4332 52.1372 23.5038 50.9865 23.547L50.9302 23.4788L51.0496 22.8118Z" fill="white"/>
</svg>
